<svg xmlns="http://www.w3.org/2000/svg" width="150" height="30" viewBox="0 0 150 30"><g><g><path fill="#2c3b40" d="M-.031 29V-.082h19.55v6.484H7.762v5.645h11.074v6.386H7.762V29zm24.511 0V-.082h13.633c3.841 0 6.589.752 8.242 2.256 1.654 1.504 2.48 3.981 2.48 7.431v1.914c0 3.464-.83 5.951-2.49 7.461-1.66 1.51-4.404 2.266-8.232 2.266h-5.84V29zm7.793-14.238h5.43c1.276 0 2.122-.228 2.54-.684.416-.456.624-1.374.624-2.754v-1.68c0-1.158-.264-1.982-.79-2.47-.528-.488-1.424-.733-2.686-.733h-5.118zM52.801-.082h7.754V16.87c0 2.357.296 3.887.888 4.59.593.703 1.807 1.054 3.643 1.054h1.426c1.822 0 3.027-.344 3.613-1.035.586-.69.879-2.226.879-4.609V-.082h7.754v17.559c0 2.604-.16 4.518-.479 5.742-.319 1.224-.863 2.285-1.63 3.183-.912 1.055-2.048 1.81-3.409 2.266-1.36.456-3.2.683-5.517.683h-3.848c-2.318 0-4.157-.227-5.518-.683-1.36-.456-2.49-1.211-3.388-2.266-.782-.911-1.338-1.989-1.67-3.232-.332-1.244-.498-3.141-.498-5.693zm54.765 0h11.387V29h-7.598V7.633L105.515 29h-7.792l-5.88-21.602V29h-7.597V-.082h11.387l5.957 21.035zM124.891 29V-.082h13.632c3.841 0 6.589.752 8.243 2.256 1.653 1.504 2.48 3.981 2.48 7.431v1.914c0 3.464-.83 5.951-2.49 7.461-1.66 1.51-4.404 2.266-8.233 2.266h-5.84V29zm7.793-14.238h5.43c1.275 0 2.121-.228 2.538-.684.417-.456.625-1.374.625-2.754v-1.68c0-1.158-.263-1.982-.79-2.47-.528-.488-1.423-.733-2.686-.733h-5.117z"/><path fill="#8bb6c8" d="M-.031 29V-.082h19.55v6.484H7.762v5.645h11.074v6.386H7.762V29zm24.511 0V-.082h13.633c3.841 0 6.589.752 8.242 2.256 1.654 1.504 2.48 3.981 2.48 7.431v1.914c0 3.464-.83 5.951-2.49 7.461-1.66 1.51-4.404 2.266-8.232 2.266h-5.84V29zm7.793-14.238h5.43c1.276 0 2.122-.228 2.54-.684.416-.456.624-1.374.624-2.754v-1.68c0-1.158-.264-1.982-.79-2.47-.528-.488-1.424-.733-2.686-.733h-5.118zM52.801-.082h7.754V16.87c0 2.357.296 3.887.888 4.59.593.703 1.807 1.054 3.643 1.054h1.426c1.822 0 3.027-.344 3.613-1.035.586-.69.879-2.226.879-4.609V-.082h7.754v17.559c0 2.604-.16 4.518-.479 5.742-.319 1.224-.863 2.285-1.63 3.183-.912 1.055-2.048 1.81-3.409 2.266-1.36.456-3.2.683-5.517.683h-3.848c-2.318 0-4.157-.227-5.518-.683-1.36-.456-2.49-1.211-3.388-2.266-.782-.911-1.338-1.989-1.67-3.232-.332-1.244-.498-3.141-.498-5.693zm54.765 0h11.387V29h-7.598V7.633L105.515 29h-7.792l-5.88-21.602V29h-7.597V-.082h11.387l5.957 21.035zM124.891 29V-.082h13.632c3.841 0 6.589.752 8.243 2.256 1.653 1.504 2.48 3.981 2.48 7.431v1.914c0 3.464-.83 5.951-2.49 7.461-1.66 1.51-4.404 2.266-8.233 2.266h-5.84V29zm7.793-14.238h5.43c1.275 0 2.121-.228 2.538-.684.417-.456.625-1.374.625-2.754v-1.68c0-1.158-.263-1.982-.79-2.47-.528-.488-1.423-.733-2.686-.733h-5.117z"/></g></g></svg>